# xmcd
#
# Track frame offsets:
#	150
#	9702
#	20960
#	23002
#	39210
#	54906
#	76575
#	92441
#	109161
#	119566
#	135091
#	148739
#	159997
#	165794
#	188316
#	200428
#	212710
#	230283
#	242395
#	247851
#	265424
#	272245
#	292549
#	301759
#	315919
#	324276
#	336558
#
# Disc length: 4625 seconds
#
# Revision: 0
# Processed by: cddbd v1.4PL0 Copyright (c) Steve Scherf et al.
# Submitted via: EasyCDDAExtractor 5.0.5.1
#
DISCID=4b120f1b
DTITLE=DJ Green Lantern - Shady Mixtape!
DYEAR=2002
DGENRE=Rap
TTITLE0=Shady Mixtape Intro
TTITLE1=Invasion
TTITLE2=Freestyle
TTITLE3=The Sauce
TTITLE4=Pull Ya Skirt Up
TTITLE5=Nail In The Coffin
TTITLE6=Welcome To Detroit City
TTITLE7=8 More Miles
TTITLE8=Survival Of The Fittest 2003
TTITLE9=Freestyle
TTITLE10=You've Been Slain
TTITLE11=The Hood
TTITLE12=Freestyle
TTITLE13=Rap Game
TTITLE14=Freestyle
TTITLE15=Freestyle
TTITLE16=Freestyle
TTITLE17=Freestyle
TTITLE18=Freestyle
TTITLE19=Lose Yourself (Green Lantern RMX)
TTITLE20=Freestyle
TTITLE21=The Watcher Pt. 2
TTITLE22=Freestyle
TTITLE23=Freestyle
TTITLE24=Freestyle
TTITLE25=Freestyle
TTITLE26=Thug Mansion (Green Lantern RMX)
EXTD=
EXTT0=
EXTT1=
EXTT2=
EXTT3=
EXTT4=
EXTT5=
EXTT6=
EXTT7=
EXTT8=
EXTT9=
EXTT10=
EXTT11=
EXTT12=
EXTT13=
EXTT14=
EXTT15=
EXTT16=
EXTT17=
EXTT18=
EXTT19=
EXTT20=
EXTT21=
EXTT22=
EXTT23=
EXTT24=
EXTT25=
EXTT26=
PLAYORDER=
